<mxfile host="app.diagrams.net" modified="2020-12-25T01:58:29.126Z" agent="5.0 (Macintosh; Intel Mac OS X 10_14_6) AppleWebKit/537.36 (KHTML, like Gecko) Chrome/87.0.4280.88 Safari/537.36" etag="Jzvd_AlvBQ6FNzo6w5qW" version="14.1.1" type="github">
  <diagram id="Yjjd4iymPNlZoRnGIAg2" name="Page-1">
    <mxGraphModel dx="1639" dy="912" grid="1" gridSize="10" guides="1" tooltips="1" connect="1" arrows="1" fold="1" page="1" pageScale="1" pageWidth="827" pageHeight="1169" math="0" shadow="0">
      <root>
        <mxCell id="0" />
        <mxCell id="1" parent="0" />
        <mxCell id="y3p8oQp4nrf6NhNMhpHg-21" style="edgeStyle=orthogonalEdgeStyle;rounded=0;orthogonalLoop=1;jettySize=auto;html=1;entryX=0;entryY=0.5;entryDx=0;entryDy=0;" parent="1" edge="1">
          <mxGeometry relative="1" as="geometry">
            <Array as="points">
              <mxPoint x="70" y="346" />
            </Array>
            <mxPoint x="70" y="348" as="sourcePoint" />
            <mxPoint x="250" y="346" as="targetPoint" />
          </mxGeometry>
        </mxCell>
        <mxCell id="cmb7abvfNNHg6s3RTJ-E-3" style="edgeStyle=orthogonalEdgeStyle;rounded=0;orthogonalLoop=1;jettySize=auto;html=1;entryX=0;entryY=0.5;entryDx=0;entryDy=0;" parent="1" target="y3p8oQp4nrf6NhNMhpHg-10" edge="1">
          <mxGeometry relative="1" as="geometry">
            <mxPoint x="240" y="156" as="targetPoint" />
            <mxPoint x="80" y="346" as="sourcePoint" />
            <Array as="points">
              <mxPoint x="170" y="346" />
              <mxPoint x="170" y="156" />
            </Array>
          </mxGeometry>
        </mxCell>
        <mxCell id="cmb7abvfNNHg6s3RTJ-E-7" style="edgeStyle=orthogonalEdgeStyle;rounded=0;orthogonalLoop=1;jettySize=auto;html=1;entryX=0;entryY=0.5;entryDx=0;entryDy=0;" parent="1" edge="1">
          <mxGeometry relative="1" as="geometry">
            <mxPoint x="80" y="346" as="sourcePoint" />
            <mxPoint x="250" y="250" as="targetPoint" />
            <Array as="points">
              <mxPoint x="170" y="346" />
              <mxPoint x="170" y="250" />
            </Array>
          </mxGeometry>
        </mxCell>
        <mxCell id="cmb7abvfNNHg6s3RTJ-E-8" style="edgeStyle=orthogonalEdgeStyle;rounded=0;orthogonalLoop=1;jettySize=auto;html=1;entryX=0;entryY=0.5;entryDx=0;entryDy=0;" parent="1" edge="1">
          <mxGeometry relative="1" as="geometry">
            <mxPoint x="80" y="346" as="sourcePoint" />
            <mxPoint x="250" y="430" as="targetPoint" />
            <Array as="points">
              <mxPoint x="170" y="346" />
              <mxPoint x="170" y="430" />
            </Array>
          </mxGeometry>
        </mxCell>
        <mxCell id="cmb7abvfNNHg6s3RTJ-E-9" style="edgeStyle=orthogonalEdgeStyle;rounded=0;orthogonalLoop=1;jettySize=auto;html=1;entryX=0;entryY=0.5;entryDx=0;entryDy=0;" parent="1" edge="1">
          <mxGeometry relative="1" as="geometry">
            <mxPoint x="80" y="346" as="sourcePoint" />
            <mxPoint x="250" y="530" as="targetPoint" />
            <Array as="points">
              <mxPoint x="170" y="346" />
              <mxPoint x="170" y="530" />
            </Array>
          </mxGeometry>
        </mxCell>
        <mxCell id="cmb7abvfNNHg6s3RTJ-E-10" style="edgeStyle=orthogonalEdgeStyle;rounded=0;orthogonalLoop=1;jettySize=auto;html=1;entryX=0;entryY=0.5;entryDx=0;entryDy=0;" parent="1" edge="1">
          <mxGeometry relative="1" as="geometry">
            <mxPoint x="85" y="346" as="sourcePoint" />
            <mxPoint x="255" y="626" as="targetPoint" />
            <Array as="points">
              <mxPoint x="170" y="346" />
              <mxPoint x="170" y="626" />
            </Array>
          </mxGeometry>
        </mxCell>
        <mxCell id="y3p8oQp4nrf6NhNMhpHg-9" value="bos重构" style="rounded=0;whiteSpace=wrap;html=1;" parent="1" vertex="1">
          <mxGeometry x="40" y="192" width="40" height="330" as="geometry" />
        </mxCell>
        <mxCell id="y3p8oQp4nrf6NhNMhpHg-22" style="edgeStyle=orthogonalEdgeStyle;rounded=0;orthogonalLoop=1;jettySize=auto;html=1;entryX=0;entryY=0.5;entryDx=0;entryDy=0;" parent="1" source="y3p8oQp4nrf6NhNMhpHg-10" target="y3p8oQp4nrf6NhNMhpHg-18" edge="1">
          <mxGeometry relative="1" as="geometry" />
        </mxCell>
        <mxCell id="y3p8oQp4nrf6NhNMhpHg-10" value="&lt;span&gt;场景/方案调研&lt;/span&gt;" style="rounded=0;whiteSpace=wrap;html=1;" parent="1" vertex="1">
          <mxGeometry x="250" y="126" width="120" height="60" as="geometry" />
        </mxCell>
        <mxCell id="y3p8oQp4nrf6NhNMhpHg-24" value="" style="edgeStyle=orthogonalEdgeStyle;rounded=0;orthogonalLoop=1;jettySize=auto;html=1;" parent="1" source="y3p8oQp4nrf6NhNMhpHg-11" target="y3p8oQp4nrf6NhNMhpHg-23" edge="1">
          <mxGeometry relative="1" as="geometry" />
        </mxCell>
        <mxCell id="y3p8oQp4nrf6NhNMhpHg-11" value="方案设计" style="rounded=0;whiteSpace=wrap;html=1;" parent="1" vertex="1">
          <mxGeometry x="250" y="224" width="120" height="60" as="geometry" />
        </mxCell>
        <mxCell id="y3p8oQp4nrf6NhNMhpHg-29" value="" style="edgeStyle=orthogonalEdgeStyle;rounded=0;orthogonalLoop=1;jettySize=auto;html=1;" parent="1" source="y3p8oQp4nrf6NhNMhpHg-12" target="y3p8oQp4nrf6NhNMhpHg-26" edge="1">
          <mxGeometry relative="1" as="geometry" />
        </mxCell>
        <mxCell id="y3p8oQp4nrf6NhNMhpHg-12" value="方案实施" style="rounded=0;whiteSpace=wrap;html=1;" parent="1" vertex="1">
          <mxGeometry x="250" y="504" width="120" height="60" as="geometry" />
        </mxCell>
        <mxCell id="y3p8oQp4nrf6NhNMhpHg-18" value="结合平台支持的场景和调研现状,思考重构方案" style="rounded=0;whiteSpace=wrap;html=1;" parent="1" vertex="1">
          <mxGeometry x="450" y="126" width="120" height="60" as="geometry" />
        </mxCell>
        <mxCell id="y3p8oQp4nrf6NhNMhpHg-28" value="" style="edgeStyle=orthogonalEdgeStyle;rounded=0;orthogonalLoop=1;jettySize=auto;html=1;" parent="1" source="y3p8oQp4nrf6NhNMhpHg-20" target="y3p8oQp4nrf6NhNMhpHg-25" edge="1">
          <mxGeometry relative="1" as="geometry" />
        </mxCell>
        <mxCell id="y3p8oQp4nrf6NhNMhpHg-20" value="方案讨论" style="rounded=0;whiteSpace=wrap;html=1;" parent="1" vertex="1">
          <mxGeometry x="250" y="314" width="120" height="60" as="geometry" />
        </mxCell>
        <mxCell id="y3p8oQp4nrf6NhNMhpHg-23" value="考虑现有功能的兼容性和扩展性,结合,设计方案(沿用以前流程,设计辅助表来实现)" style="rounded=0;whiteSpace=wrap;html=1;" parent="1" vertex="1">
          <mxGeometry x="450" y="224" width="130" height="60" as="geometry" />
        </mxCell>
        <mxCell id="y3p8oQp4nrf6NhNMhpHg-25" value="和相关人员对方案整体、细节、关键点、风险点等进行讨论,得到最优方案" style="rounded=0;whiteSpace=wrap;html=1;" parent="1" vertex="1">
          <mxGeometry x="450" y="314" width="120" height="60" as="geometry" />
        </mxCell>
        <mxCell id="y3p8oQp4nrf6NhNMhpHg-26" value="对方案进行合理规划之后,开始实施" style="rounded=0;whiteSpace=wrap;html=1;" parent="1" vertex="1">
          <mxGeometry x="450" y="504" width="120" height="60" as="geometry" />
        </mxCell>
        <mxCell id="JvB9n8HEAgJqky4Rzzta-10" value="" style="edgeStyle=orthogonalEdgeStyle;rounded=0;orthogonalLoop=1;jettySize=auto;html=1;" parent="1" source="JvB9n8HEAgJqky4Rzzta-1" target="JvB9n8HEAgJqky4Rzzta-9" edge="1">
          <mxGeometry relative="1" as="geometry" />
        </mxCell>
        <mxCell id="JvB9n8HEAgJqky4Rzzta-1" value="详细设计" style="rounded=0;whiteSpace=wrap;html=1;" parent="1" vertex="1">
          <mxGeometry x="250" y="404" width="120" height="60" as="geometry" />
        </mxCell>
        <mxCell id="JvB9n8HEAgJqky4Rzzta-9" value="在方案讨论确定之后,在对方案进行详细(包括多对一交互和全量和增量实现细节)" style="rounded=0;whiteSpace=wrap;html=1;" parent="1" vertex="1">
          <mxGeometry x="450" y="404" width="120" height="60" as="geometry" />
        </mxCell>
        <mxCell id="cmb7abvfNNHg6s3RTJ-E-4" value="" style="edgeStyle=orthogonalEdgeStyle;rounded=0;orthogonalLoop=1;jettySize=auto;html=1;" parent="1" source="cmb7abvfNNHg6s3RTJ-E-5" target="cmb7abvfNNHg6s3RTJ-E-6" edge="1">
          <mxGeometry relative="1" as="geometry" />
        </mxCell>
        <mxCell id="cmb7abvfNNHg6s3RTJ-E-5" value="测试上线" style="rounded=0;whiteSpace=wrap;html=1;" parent="1" vertex="1">
          <mxGeometry x="250" y="600" width="120" height="60" as="geometry" />
        </mxCell>
        <mxCell id="cmb7abvfNNHg6s3RTJ-E-6" value="梳理功能影响范围和测试点,系统测试(对以前join类型和平台流程等均需要全面测试)" style="rounded=0;whiteSpace=wrap;html=1;" parent="1" vertex="1">
          <mxGeometry x="450" y="600" width="120" height="60" as="geometry" />
        </mxCell>
      </root>
    </mxGraphModel>
  </diagram>
</mxfile>
